<svg width="200" height="200" viewBox="0 0 100 100" xmlns="http://www.w3.org/2000/svg">
  <!-- 
    Logo para una aplicaci贸n de quiz de memoria.
    Concepto: Combina un cerebro (memoria) y un signo de interrogaci贸n (quiz).
    Estilo: Moderno, limpio y amigable.
  -->

  <!-- Definici贸n del degradado para el fondo -->
  <defs>
    <linearGradient id="backgroundGradient" x1="0%" y1="0%" x2="100%" y2="100%">
      <stop offset="0%" style="stop-color:#4338CA; stop-opacity:1" />
      <stop offset="100%" style="stop-color:#6366F1; stop-opacity:1" />
    </linearGradient>
  </defs>

  <!-- Fondo circular con el degradado aplicado -->
  <circle cx="50" cy="50" r="48" fill="url(#backgroundGradient)" />

  <!-- Silueta del cerebro en color blanco -->
  <path fill="#FFFFFF" d="M50,22.5 C36.5,22.5 25,31.5 25,47.5 C25,58.5 31,68 41.5,71.5 C40,73 38.5,75 38.5,77.5 C43,77.5 45.5,75.5 47,73.5 C48,74 49,74.5 50,74.5 C51,74.5 52,74 53,73.5 C54.5,75.5 57,77.5 61.5,77.5 C61.5,75 60,73 58.5,71.5 C69,68 75,58.5 75,47.5 C75,31.5 63.5,22.5 50,22.5 Z M50,30 C53,30 57,32 59.5,36 C57,39 53.5,41 50,41 C46.5,41 43,39 40.5,36 C43,32 47,30 50,30 Z M42,47.5 C42,45.5 43.5,44 45.5,44 C47.5,44 49,45.5 49,47.5 C49,49.5 47.5,51 45.5,51 C43.5,51 42,49.5 42,47.5 Z M50,56 C45,56 41,52 41,47.5 C41,45 42,43 43.5,41.5 C46,44 49.5,45.5 53.5,45.5 C57.5,45.5 61.5,43.5 63.5,40 C65.5,42.5 67,45 67,47.5 C67,52 63,56 58,56 C57,60 54,62.5 50,62.5 C46,62.5 43,60 42,56 L50,56 Z"/>

  <!-- Signo de interrogaci贸n en el centro -->
  <g transform="translate(0, -2)">
    <path fill="#FBBF24" d="M50 42.5 C47.5 42.5 45.5 44 45.5 46.5 C45.5 48 47 50.5 50 50.5 C53 50.5 54.5 48 54.5 46.5 C54.5 44 52.5 42.5 50 42.5 Z M47.5 53 L52.5 53 L52.5 58 L47.5 58 Z" transform="rotate(15 50 50)"/>
    <path fill="#FBBF24" d="M48,35 C48,32 50,30 52.5,30 C56,30 58.5,33 58.5,36.5 C58.5,39.5 56.5,41 54.5,43 L52.5,45 L52.5,47 L50,47 L50,44 C52,42.5 53.5,41 53.5,39 C53.5,36.5 51,35 49.5,35 C48.75,35 48,35 48,35 Z" transform="rotate(15 50 50)"/>
  </g>
</svg>
